<svg width="50" height="50" viewBox="0 0 50 50" fill="none" xmlns="http://www.w3.org/2000/svg">
<path fill-rule="evenodd" clip-rule="evenodd" d="M17.125 30.25H43.375C44.0712 30.25 44.7389 30.5266 45.2312 31.0188C45.7234 31.5111 46 32.1788 46 32.875C46 33.5712 45.7234 34.2389 45.2312 34.7312C44.7389 35.2234 44.0712 35.5 43.375 35.5H17.125C16.4288 35.5 15.7611 35.2234 15.2688 34.7312C14.7766 34.2389 14.5 33.5712 14.5 32.875C14.5 32.1788 14.7766 31.5111 15.2688 31.0188C15.7611 30.5266 16.4288 30.25 17.125 30.25ZM17.125 40.75H43.375C44.0712 40.75 44.7389 41.0266 45.2312 41.5188C45.7234 42.0111 46 42.6788 46 43.375C46 44.0712 45.7234 44.7389 45.2312 45.2312C44.7389 45.7234 44.0712 46 43.375 46H17.125C16.4288 46 15.7611 45.7234 15.2688 45.2312C14.7766 44.7389 14.5 44.0712 14.5 43.375C14.5 42.6788 14.7766 42.0111 15.2688 41.5188C15.7611 41.0266 16.4288 40.75 17.125 40.75ZM32.875 19.75H43.375C44.0712 19.75 44.7389 20.0266 45.2312 20.5188C45.7234 21.0111 46 21.6788 46 22.375C46 23.0712 45.7234 23.7389 45.2312 24.2312C44.7389 24.7234 44.0712 25 43.375 25H32.875C32.1788 25 31.5111 24.7234 31.0188 24.2312C30.5266 23.7389 30.25 23.0712 30.25 22.375C30.25 21.6788 30.5266 21.0111 31.0188 20.5188C31.5111 20.0266 32.1788 19.75 32.875 19.75ZM13.8254 24.7742L4 14.9515L7.71175 11.2371L13.8254 17.3508L27.1735 4L30.8879 7.71175L13.8254 24.7742Z" fill="#111827"/>
</svg>
