<svg width="54" height="54" viewBox="0 0 54 54" fill="none" xmlns="http://www.w3.org/2000/svg">
<path d="M14.7806 5.60997C14.39 5.21941 13.8602 5 13.3077 5C12.7553 5 12.2255 5.21941 11.8348 5.60997L9.14107 8.30372L8.53065 7.6933C8.13773 7.31381 7.61147 7.10382 7.06523 7.10857C6.51899 7.11331 5.99646 7.33242 5.61019 7.71868C5.22393 8.10495 5.00483 8.62748 5.00008 9.17372C4.99533 9.71996 5.20532 10.2462 5.58482 10.6391L7.66815 12.7225C8.05883 13.113 8.58864 13.3324 9.14107 13.3324C9.69349 13.3324 10.2233 13.113 10.614 12.7225L14.7806 8.5558C15.1712 8.16512 15.3906 7.63531 15.3906 7.08289C15.3906 6.53046 15.1712 6.00065 14.7806 5.60997ZM23.7244 37.2912C23.7244 37.6371 23.7369 37.9787 23.7619 38.3183H21.6411C21.1101 38.3177 20.5993 38.1144 20.2132 37.7499C19.8271 37.3853 19.5947 36.8872 19.5636 36.3571C19.5325 35.827 19.705 35.305 20.0458 34.8978C20.3866 34.4906 20.87 34.2289 21.3973 34.1662L21.6411 34.1516H24.089C23.8457 35.1804 23.7234 36.2341 23.7244 37.2912ZM37.2661 23.7496C39.8218 23.7454 42.3261 24.4679 44.4869 25.8329H44.5661L44.8077 25.8183C45.3347 25.7556 45.8178 25.4943 46.1586 25.0875C46.4994 24.6808 46.6722 24.1593 46.6416 23.6295C46.611 23.0998 46.3795 22.6016 45.9941 22.2368C45.6088 21.8719 45.0988 21.6679 44.5681 21.6662H21.6411L21.3973 21.6808C20.87 21.7435 20.3866 22.0052 20.0458 22.4124C19.705 22.8196 19.5325 23.3416 19.5636 23.8716C19.5947 24.4017 19.8271 24.8999 20.2132 25.2645C20.5993 25.629 21.1101 25.8323 21.6411 25.8329H30.0452C32.206 24.4679 34.7103 23.7454 37.2661 23.7496ZM44.5661 9.16622H21.6411L21.3973 9.1808C20.87 9.24352 20.3866 9.50521 20.0458 9.9124C19.705 10.3196 19.5325 10.8416 19.5636 11.3716C19.5947 11.9017 19.8271 12.3999 20.2132 12.7645C20.5993 13.129 21.1101 13.3323 21.6411 13.3329H44.5661L44.8077 13.3183C45.3347 13.2556 45.8178 12.9943 46.1586 12.5875C46.4994 12.1808 46.6722 11.6593 46.6416 11.1295C46.611 10.5998 46.3795 10.1016 45.9941 9.73677C45.6088 9.37192 45.0988 9.16785 44.5681 9.16622H44.5661ZM14.7806 32.6933C14.39 32.3027 13.8602 32.0833 13.3077 32.0833C12.7553 32.0833 12.2255 32.3027 11.8348 32.6933L9.14107 35.3871L8.53065 34.7766C8.13773 34.3971 7.61147 34.1872 7.06523 34.1919C6.51899 34.1966 5.99646 34.4157 5.61019 34.802C5.22393 35.1883 5.00483 35.7108 5.00008 36.2571C4.99533 36.8033 5.20532 37.3296 5.58482 37.7225L7.66815 39.8058C8.05883 40.1964 8.58864 40.4158 9.14107 40.4158C9.69349 40.4158 10.2233 40.1964 10.614 39.8058L14.7806 35.6391C15.1712 35.2485 15.3906 34.7186 15.3906 34.1662C15.3906 33.6138 15.1712 33.084 14.7806 32.6933ZM11.8348 19.1516C12.2277 18.7721 12.754 18.5622 13.3002 18.5669C13.8465 18.5716 14.369 18.7907 14.7553 19.177C15.1415 19.5633 15.3606 20.0858 15.3654 20.6321C15.3701 21.1783 15.1601 21.7045 14.7806 22.0975L10.614 26.2641C10.2233 26.6547 9.69349 26.8741 9.14107 26.8741C8.58864 26.8741 8.05883 26.6547 7.66815 26.2641L5.58482 24.1808C5.20532 23.7879 4.99533 23.2616 5.00008 22.7154C5.00483 22.1691 5.22393 21.6466 5.61019 21.2603C5.99646 20.8741 6.51899 20.655 7.06523 20.6502C7.61147 20.6455 8.13773 20.8555 8.53065 21.235L9.14107 21.8454L11.8348 19.1516ZM48.7244 37.2912C48.7244 34.2523 47.5172 31.3378 45.3683 29.189C43.2195 27.0401 40.305 25.8329 37.2661 25.8329C34.2271 25.8329 31.3127 27.0401 29.1638 29.189C27.0149 31.3378 25.8077 34.2523 25.8077 37.2912C25.8077 40.3302 27.0149 43.2446 29.1638 45.3935C31.3127 47.5423 34.2271 48.7496 37.2661 48.7496C40.305 48.7496 43.2195 47.5423 45.3683 45.3935C47.5172 43.2446 48.7244 40.3302 48.7244 37.2912ZM38.3077 38.3329L38.3098 43.5475C38.3098 43.8237 38.2001 44.0887 38.0047 44.284C37.8094 44.4794 37.5444 44.5891 37.2681 44.5891C36.9919 44.5891 36.7269 44.4794 36.5316 44.284C36.3362 44.0887 36.2265 43.8237 36.2265 43.5475V38.3329H31.0077C30.7315 38.3329 30.4665 38.2231 30.2712 38.0278C30.0758 37.8324 29.9661 37.5675 29.9661 37.2912C29.9661 37.015 30.0758 36.75 30.2712 36.5546C30.4665 36.3593 30.7315 36.2496 31.0077 36.2496H36.2244V31.0412C36.2244 30.765 36.3341 30.5 36.5295 30.3046C36.7248 30.1093 36.9898 29.9996 37.2661 29.9996C37.5423 29.9996 37.8073 30.1093 38.0026 30.3046C38.198 30.5 38.3077 30.765 38.3077 31.0412V36.2496H43.5098C43.7861 36.2496 44.051 36.3593 44.2464 36.5546C44.4417 36.75 44.5515 37.015 44.5515 37.2912C44.5515 37.5675 44.4417 37.8324 44.2464 38.0278C44.051 38.2231 43.7861 38.3329 43.5098 38.3329H38.3077Z" fill="#111827"/>
</svg>
